<mxfile host="app.diagrams.net" modified="2023-09-12T01:07:31.084Z" agent="Mozilla/5.0 (Windows NT 10.0; Win64; x64) AppleWebKit/537.36 (KHTML, like Gecko) Chrome/116.0.0.0 Safari/537.36" etag="JVmt_hRs6bzqUluNBJpu" version="21.7.4" type="github">
  <diagram name="Page-1" id="5f0bae14-7c28-e335-631c-24af17079c00">
    <mxGraphModel dx="1928" dy="1790" grid="1" gridSize="10" guides="1" tooltips="1" connect="1" arrows="1" fold="1" page="1" pageScale="1" pageWidth="1100" pageHeight="850" background="none" math="0" shadow="0">
      <root>
        <mxCell id="0" />
        <mxCell id="1" parent="0" />
        <mxCell id="39150e848f15840c-1" value="API Back-end" style="verticalAlign=top;align=left;spacingTop=8;spacingLeft=2;spacingRight=12;shape=cube;size=10;direction=south;fontStyle=4;html=1;rounded=0;shadow=0;comic=0;labelBackgroundColor=none;strokeWidth=1;fontFamily=Verdana;fontSize=12" parent="1" vertex="1">
          <mxGeometry x="120" y="120" width="330" height="220" as="geometry" />
        </mxCell>
        <mxCell id="39150e848f15840c-2" value="Interface Front-end" style="verticalAlign=top;align=left;spacingTop=8;spacingLeft=2;spacingRight=12;shape=cube;size=10;direction=south;fontStyle=4;html=1;rounded=0;shadow=0;comic=0;labelBackgroundColor=none;strokeWidth=1;fontFamily=Verdana;fontSize=12" parent="1" vertex="1">
          <mxGeometry x="540" y="120" width="400" height="250" as="geometry" />
        </mxCell>
        <mxCell id="39150e848f15840c-4" value="&lt;b&gt;/route.ts&lt;/b&gt;" style="html=1;rounded=0;shadow=0;comic=0;labelBackgroundColor=none;strokeWidth=1;fontFamily=Verdana;fontSize=12;align=center;" parent="1" vertex="1">
          <mxGeometry x="320" y="185" width="120" height="50" as="geometry" />
        </mxCell>
        <mxCell id="39150e848f15840c-5" value="Pasta &lt;br&gt;«nome-da-rota»" style="shape=component;align=left;spacingLeft=36;rounded=0;shadow=0;comic=0;labelBackgroundColor=none;strokeWidth=1;fontFamily=Verdana;fontSize=12;html=1;" parent="1" vertex="1">
          <mxGeometry x="150" y="180" width="140" height="60" as="geometry" />
        </mxCell>
        <mxCell id="39150e848f15840c-6" value="Middleware" style="whiteSpace=wrap;html=1;rounded=0;shadow=0;comic=0;labelBackgroundColor=none;strokeWidth=1;fontFamily=Verdana;fontSize=12;align=center;shape=process;backgroundOutline=1;" parent="1" vertex="1">
          <mxGeometry x="325" y="300" width="110" height="20" as="geometry" />
        </mxCell>
        <mxCell id="39150e848f15840c-7" value="Pasta&lt;br&gt;&amp;lt;&amp;lt;nome-da-rota&amp;gt;&amp;gt;" style="shape=component;align=left;spacingLeft=36;rounded=0;shadow=0;comic=0;labelBackgroundColor=none;strokeWidth=1;fontFamily=Verdana;fontSize=12;html=1;" parent="1" vertex="1">
          <mxGeometry x="560" y="155" width="160" height="60" as="geometry" />
        </mxCell>
        <mxCell id="39150e848f15840c-8" value="«interfaces»&lt;br&gt;&lt;b&gt;Componentes&lt;/b&gt;" style="html=1;rounded=0;shadow=0;comic=0;labelBackgroundColor=none;strokeWidth=1;fontFamily=Verdana;fontSize=12;align=center;shape=ellipse;perimeter=ellipsePerimeter;whiteSpace=wrap;" parent="1" vertex="1">
          <mxGeometry x="790" y="160" width="120" height="50" as="geometry" />
        </mxCell>
        <mxCell id="KzQMjx8_p4xcRqdLeIDF-13" style="edgeStyle=orthogonalEdgeStyle;rounded=0;orthogonalLoop=1;jettySize=auto;html=1;exitX=0;exitY=0.5;exitDx=0;exitDy=0;" edge="1" parent="1" source="39150e848f15840c-9" target="39150e848f15840c-1">
          <mxGeometry relative="1" as="geometry">
            <Array as="points">
              <mxPoint x="610" y="280" />
              <mxPoint x="500" y="280" />
              <mxPoint x="500" y="230" />
            </Array>
          </mxGeometry>
        </mxCell>
        <mxCell id="KzQMjx8_p4xcRqdLeIDF-22" value="GET/POST" style="edgeLabel;html=1;align=center;verticalAlign=middle;resizable=0;points=[];" vertex="1" connectable="0" parent="KzQMjx8_p4xcRqdLeIDF-13">
          <mxGeometry x="0.381" y="-3" relative="1" as="geometry">
            <mxPoint as="offset" />
          </mxGeometry>
        </mxCell>
        <mxCell id="KzQMjx8_p4xcRqdLeIDF-18" value="" style="edgeStyle=orthogonalEdgeStyle;rounded=0;orthogonalLoop=1;jettySize=auto;html=1;" edge="1" parent="1" source="39150e848f15840c-9" target="KzQMjx8_p4xcRqdLeIDF-15">
          <mxGeometry relative="1" as="geometry" />
        </mxCell>
        <mxCell id="39150e848f15840c-9" value="&lt;font style=&quot;font-size: 10px;&quot;&gt;Token de autenticação&lt;/font&gt;" style="ellipse;whiteSpace=wrap;html=1;rounded=0;shadow=0;comic=0;labelBackgroundColor=none;strokeWidth=1;fontFamily=Verdana;fontSize=12;align=center;" parent="1" vertex="1">
          <mxGeometry x="630" y="245" width="70" height="70" as="geometry" />
        </mxCell>
        <mxCell id="39150e848f15840c-16" style="edgeStyle=orthogonalEdgeStyle;rounded=0;html=1;dashed=1;labelBackgroundColor=none;startArrow=none;startFill=0;startSize=8;endArrow=open;endFill=0;endSize=16;fontFamily=Verdana;fontSize=12;" parent="1" source="39150e848f15840c-7" target="39150e848f15840c-8" edge="1">
          <mxGeometry relative="1" as="geometry" />
        </mxCell>
        <mxCell id="KzQMjx8_p4xcRqdLeIDF-1" value="Banco de Dados" style="strokeWidth=2;html=1;shape=mxgraph.flowchart.database;whiteSpace=wrap;" vertex="1" parent="1">
          <mxGeometry x="160" y="-10" width="60" height="80" as="geometry" />
        </mxCell>
        <mxCell id="KzQMjx8_p4xcRqdLeIDF-3" value="" style="endArrow=classic;startArrow=classic;html=1;rounded=0;exitX=0.003;exitY=0.784;exitDx=0;exitDy=0;exitPerimeter=0;" edge="1" parent="1" source="39150e848f15840c-1" target="KzQMjx8_p4xcRqdLeIDF-1">
          <mxGeometry width="50" height="50" relative="1" as="geometry">
            <mxPoint x="200" y="170" as="sourcePoint" />
            <mxPoint x="250" y="120" as="targetPoint" />
          </mxGeometry>
        </mxCell>
        <mxCell id="KzQMjx8_p4xcRqdLeIDF-5" value="ORM Prisma" style="edgeLabel;html=1;align=center;verticalAlign=middle;resizable=0;points=[];" vertex="1" connectable="0" parent="KzQMjx8_p4xcRqdLeIDF-3">
          <mxGeometry x="-0.0891" y="2" relative="1" as="geometry">
            <mxPoint as="offset" />
          </mxGeometry>
        </mxCell>
        <mxCell id="KzQMjx8_p4xcRqdLeIDF-7" value="" style="endArrow=none;dashed=1;html=1;rounded=0;exitX=0.25;exitY=1;exitDx=0;exitDy=0;" edge="1" parent="1" source="39150e848f15840c-4">
          <mxGeometry width="50" height="50" relative="1" as="geometry">
            <mxPoint x="210" y="280" as="sourcePoint" />
            <mxPoint x="260" y="240" as="targetPoint" />
            <Array as="points">
              <mxPoint x="350" y="270" />
              <mxPoint x="300" y="270" />
              <mxPoint x="260" y="270" />
            </Array>
          </mxGeometry>
        </mxCell>
        <mxCell id="KzQMjx8_p4xcRqdLeIDF-8" value="" style="endArrow=none;dashed=1;html=1;rounded=0;entryX=0.5;entryY=1;entryDx=0;entryDy=0;exitX=0.5;exitY=0;exitDx=0;exitDy=0;" edge="1" parent="1" source="KzQMjx8_p4xcRqdLeIDF-10" target="39150e848f15840c-6">
          <mxGeometry width="50" height="50" relative="1" as="geometry">
            <mxPoint x="374.58" y="380" as="sourcePoint" />
            <mxPoint x="374.58" y="320" as="targetPoint" />
          </mxGeometry>
        </mxCell>
        <mxCell id="KzQMjx8_p4xcRqdLeIDF-10" value="Lida com autenticação dos usuários" style="rounded=0;whiteSpace=wrap;html=1;" vertex="1" parent="1">
          <mxGeometry x="320" y="360" width="120" height="60" as="geometry" />
        </mxCell>
        <mxCell id="KzQMjx8_p4xcRqdLeIDF-11" value="" style="endArrow=classic;startArrow=classic;html=1;rounded=0;entryX=0.5;entryY=1;entryDx=0;entryDy=0;" edge="1" parent="1" source="39150e848f15840c-6" target="39150e848f15840c-4">
          <mxGeometry width="50" height="50" relative="1" as="geometry">
            <mxPoint x="355" y="270" as="sourcePoint" />
            <mxPoint x="405" y="220" as="targetPoint" />
          </mxGeometry>
        </mxCell>
        <mxCell id="KzQMjx8_p4xcRqdLeIDF-15" value="Serviço de comunicação com a API" style="shape=process;whiteSpace=wrap;html=1;backgroundOutline=1;" vertex="1" parent="1">
          <mxGeometry x="790" y="250" width="120" height="60" as="geometry" />
        </mxCell>
        <mxCell id="KzQMjx8_p4xcRqdLeIDF-21" value="" style="endArrow=classic;startArrow=classic;html=1;rounded=0;exitX=0.5;exitY=0;exitDx=0;exitDy=0;" edge="1" parent="1" source="KzQMjx8_p4xcRqdLeIDF-15" target="39150e848f15840c-8">
          <mxGeometry width="50" height="50" relative="1" as="geometry">
            <mxPoint x="850" y="250" as="sourcePoint" />
            <mxPoint x="900" y="200" as="targetPoint" />
          </mxGeometry>
        </mxCell>
      </root>
    </mxGraphModel>
  </diagram>
</mxfile>
